# WaveFront *.obj file (generated by CINEMA 4D)

v -8.46175956726074 81.46807861328125 80.08461761474609
v 2.5897741317749 -47.24087905883789 76.19509124755859
v 69.78092193603516 76.86326599121094 51.67369079589844
v 57.92267608642578 46.81847381591797 -32.24804306030273
v -30.13881492614746 123.56957244873047 -44.43330383300781
v 4.51793670654297 -53.27411651611328 -66.59739685058594
v -74.4229736328125 -4.90410757064819 -45.48586273193359
v -70.49850463867188 -11.84132480621338 44.31513595581055
v 5.49251127243042 191.2596435546875 22.39772796630859
v -56.29978942871094 129.67918395996094 17.02649688720703
v -21.57762145996094 -122.76087188720703 -13.91090488433838
v 57.12109756469727 -88.61063385009766 11.32935619354248
v -29.97607612609863 164.72755432128906 30.9600715637207
v 10.21157836914062 175.67866516113281 37.67995071411133
v -49.46151733398438 125.55628204345703 35.16239547729492
v 30.96658706665039 164.3865966796875 28.05820465087891
v 18.40208435058594 93.04800415039062 70.72515106201172
v 11.4260892868042 179.35850524902344 -15.86691665649414
v 59.68868637084961 77.34033203125 -3.3535749912262
v -24.51131248474121 175.50262451171875 7.09732866287231
v 1.18050718307495 143.68403625488281 -38.600341796875
v -60.63766479492188 118.21102142333984 -0.29761424660683
v -77.8726806640625 25.45951271057129 -30.6207332611084
v -69.52315521240234 27.50734901428223 -42.80577087402344
v -71.38267517089844 73.15161895751953 21.64274978637695
v -73.59468841552734 -15.14538955688477 9.81602382659912
v -25.34549713134766 57.96221923828125 78.30017852783203
v 32.61334609985352 -98.19806671142578 -2.7682831287384
v -15.54232120513916 -114.68271636962891 8.45508098602295
v 60.49713516235352 -64.66575622558594 27.8762035369873
v 70.1231689453125 -36.09048461914062 25.29822731018066
v 59.00244140625 51.37924575805664 62.38229751586914
v 71.07803344726562 78.78678131103516 32.5616340637207
v 38.06639099121094 -14.09126853942871 -43.71421432495117
v -44.88624572753906 122.03884887695312 -30.56277847290039
v -23.36750030517578 -110.18711853027344 -34.92425537109375
v -15.37036514282227 -45.04434204101562 -67.06817626953125
v -29.64594650268555 -112.67844390869141 -27.30782127380371
v -26.57794380187988 -111.49491119384766 3.00724744796753
v -48.59851837158203 -19.13260078430176 60.13431549072266
v 12.47474670410156 -94.55803680419922 27.40904235839844
v -74.59638214111328 12.49102687835693 33.00120544433594
v 14.59891033172607 188.93794250488281 10.26785373687744
v 69.85458374023438 8.11705589294434 -19.24160957336426
v 33.47527694702148 156.48651123046875 3.8350830078125
v -0.80753290653229 190.57563781738281 4.09010934829712
v -27.91006278991699 -61.34323120117188 50.56467819213867
v -9.77851104736328 180.7886962890625 31.52285194396973
v -0.46862077713013 1.21390414237976 83.14607238769531
v 64.22904968261719 -74.01691436767578 -0.42289307713509
v 29.21405410766602 -76.31498718261719 -37.80379104614258
v -62.83729553222656 16.06397819519043 54.9526252746582
v -59.9145622253418 -39.80428314208984 -43.87321853637695
v -58.6526985168457 -7.64102697372437 -55.62833786010742
v 5.23167610168457 -20.99035453796387 -64.41683197021484
v 27.98814010620117 127.85725402832031 -33.23908233642578
v -13.91795921325684 166.17768859863281 -27.03659629821777
v 72.28188323974609 -34.31767654418945 -4.32868528366089
v 1.2749719619751 58.25323486328125 83.35447692871094
v -13.57315254211426 -34.55475616455078 75.32441711425781
v 51.2241096496582 78.29428100585938 63.61783599853516
v -18.65664672851562 51.93852233886719 -58.19650268554688
# 62 vertices

vn -0.69981628656387 -0.60927873849869 0.37287610769272
vn -0.88807582855225 -0.45420050621033 0.07087448984385
vn -0.85163640975952 -0.31184357404709 0.42127066850662
vn 0 0 0
vn -0.5980172753334 0.52193230390549 0.6082449555397
vn -0.72052597999573 0.30386531352997 0.62330424785614
vn -0.88655865192413 0.43296259641647 0.16296365857124
vn 0.13605713844299 0.50521373748779 0.85220158100128
vn -0.14017760753632 0.48899605870247 0.86094892024994
vn 0.41833093762398 0.72033268213272 0.55328112840652
vn -0.08193796873093 -0.82781797647476 0.55498069524765
vn -0.50980788469315 -0.52565544843674 0.68101561069489
vn 0.16199038922787 -0.43536135554314 0.88556176424026
vn 0.28315544128418 -0.77034449577332 0.57130753993988
vn -0.95903313159943 -0.28226128220558 0.02416671067476
vn -0.9193931221962 -0.38941794633865 -0.05540770292282
vn -0.90563297271729 -0.09461585432291 -0.41337248682976
vn -0.5931288599968 -0.31129863858223 -0.74248993396759
vn -0.02245348878205 -0.58009535074234 -0.81423908472061
vn -0.29161441326141 -0.16541528701782 -0.94212460517883
vn 0.04042141884565 0.15008500218391 -0.98784643411636
vn -0.43495357036591 -0.02265785448253 -0.90016776323318
vn -0.74785941839218 0.07098807394505 0.6600506901741
vn -0.515380859375 -0.20563951134682 0.83192247152328
vn -0.07470475882292 -0.07235387712717 0.99457734823227
vn -0.39066287875175 -0.28365734219551 0.87574028968811
vn -0.19337223470211 0.31063023209572 0.93065357208252
vn 0.55854350328445 -0.54260760545731 -0.62738031148911
vn 0.62760120630264 -0.5368338227272 -0.56384938955307
vn 0.69715923070908 -0.18713501095772 -0.69206178188324
vn 0.53005748987198 -0.05320993438363 0.84629058837891
vn 0.51607573032379 -0.69854694604874 -0.49567937850952
vn 0.80113017559052 0.52023768424988 0.29587703943253
vn 0.78139317035675 0.28280004858971 0.556281208992
vn 0.3575687110424 0.38639774918556 0.85020083189011
vn 0.60969465970993 0.13363537192345 -0.78128999471664
vn 0.89250767230988 0.03619700670242 -0.44957745075226
vn 0.90306144952774 0.30725330114365 -0.30012574791908
vn 0.3905453979969 -0.22242397069931 -0.89330953359604
vn 0.17893858253956 0.29646778106689 -0.93812996149063
vn -0.94829106330872 0.19375778734684 0.25140005350113
vn 0.42312827706337 0.27557593584061 0.86314564943314
vn 0.14380498230457 0.09157029539347 0.98536032438278
vn 0.59282827377319 0.79882663488388 -0.10213052481413
vn -0.61297929286957 0.20691905915737 -0.76252275705338
vn 0.99809402227402 -0.05794941261411 0.02121733129025
vn 0.91626310348511 -0.17274187505245 0.36141684651375
vn 0.9813117980957 0.17815418541431 -0.07272051274776
vn -0.35782420635223 0.31568199396133 -0.87880980968475
vn 0.49668234586716 0.62541556358337 -0.60179901123047
vn 0.87415426969528 0.34838506579399 -0.33835220336914
vn 0.8740246295929 0.42737382650375 -0.2311547100544
vn -0.66483062505722 -0.6973192691803 0.26785457134247
vn -0.44439753890038 0.63750910758972 -0.629359126091
vn -0.24751074612141 0.94731664657593 -0.20329676568508
vn 0.6115682721138 -0.43648436665535 0.65989822149277
vn 0.29696869850159 -0.79361796379089 0.53101801872253
vn -0.88550126552582 0.41069504618645 -0.21729499101639
vn 0.93141359090805 -0.28931745886803 0.22082598507404
vn 0.96111869812012 -0.24090193212032 0.13497087359428
vn -0.49604254961014 -0.310103982687 -0.81103473901749
vn 0.32779186964035 0.24625080823898 -0.91209268569946
vn 0.44739228487015 -0.74431449174881 -0.49581861495972
vn -0.7084447145462 0.70051938295364 -0.08589931577444
vn -0.54611110687256 0.82246834039688 0.15908648073673
vn -0.76274615526199 0.38480749726295 -0.51975136995316
vn 0.27983129024506 0.11232658475637 -0.95345538854599
vn -0.42101258039474 0.07406251877546 0.90402609109879
vn 0.57151597738266 -0.01831009052694 -0.8203866481781
vn -0.95569533109665 0.15457125008106 -0.25050786137581
vn -0.98176032304764 -0.00423803180456 0.19007538259029
vn 0.13882292807102 0.98669391870499 -0.08463660627604
vn -0.5013535618782 0.85373765230179 0.14062933623791
vn 0.54937416315079 -0.66983151435852 -0.49951353669167
vn 0.3204559981823 -0.90433263778687 0.28194043040276
vn 0.36254814267159 -0.90351849794388 0.22850213944912
vn -0.25053852796555 -0.83999568223953 -0.48128750920296
# 77 normals

vt 0.75 0.5 0
vt 0.25 0.5 0
vt 0.8125 0.79166668653488 0
vt 0.25 1 0
vt 0.5 1 0
vt 0.125 1 0
vt 0.375 0.75 0
vt 0.875 0.75 0
vt 0.75 0.91666668653488 0
vt 0.125 0.75 0
vt 1 1 0
vt 0.75 1 0
vt 0.625 0.25 0
vt 0.5625 0.79166668653488 0
vt 0.5 0 0
vt 0.5 0.66666668653488 0
vt 0.625 0.75 0
vt 0.625 1 0
vt 0.1875 0.79166668653488 0
vt 0 1 0
vt 0.5 0.5 0
vt 0.5 0.33333337306976 0
vt 0.6875 0.91666668653488 0
vt 0.1875 0.625 0
vt 0.25 0.91666668653488 0
vt 0.4375 0.29166674613953 0
vt 0.375 0.25 0
vt 0.28125 0.77083337306976 0
vt 0.5625 0.29166674613953 0
vt 0.25 0.83333337306976 0
vt 0.375 0.41666674613953 0
vt 0.375 1 0
vt 0.625 0.5 0
vt 0.625 0.75 0
vt 0.78125 0.64583337306976 0
vt 0.875 0.91666668653488 0
vt 0.75 0.66666668653488 0
vt 0.34375 0.60416668653488 0
vt 0.625 0.91666668653488 0
# 39 texture coordinates

o Subdivision_Surface
usemtl default
f 8/3/3 38/2/2 39/1/1
f 10/6/7 15/2/6 13/5/5
f 48/9/9 13/5/5 14/8/8
f 48/9/9 14/8/8 9/11/10
f 2/11/13 47/14/12 29/13/11
f 41/16/14 2/15/13 29/13/11
f 7/20/17 53/19/16 26/18/15
f 37/5/20 36/22/19 38/1/18
f 54/3/22 62/10/21 37/1/20
f 40/23/24 52/8/23 8/11/3
f 40/23/24 60/25/26 49/24/25
f 1/26/27 13/5/5 15/2/6
f 58/2/30 50/26/29 51/1/28
f 49/8/25 2/12/13 32/5/31
f 50/26/29 28/13/32 51/1/28
f 17/1/35 3/9/34 16/5/33
f 19/18/38 44/8/37 4/11/36
f 1/15/27 17/29/35 14/28/8
f 6/20/39 51/2/28 36/5/19
f 14/28/8 17/1/35 16/5/33
f 4/26/36 62/5/21 21/2/40
f 25/24/41 15/5/6 10/6/7
f 59/29/43 61/19/42 17/2/35
f 59/29/43 17/27/35 1/15/27
f 49/24/25 60/25/26 2/20/13
f 43/30/44 9/10/10 16/2/33
f 62/10/21 54/3/22 24/12/45
f 33/4/48 31/31/47 58/1/46
f 62/32/21 5/10/49 21/2/40
f 19/3/38 56/12/51 18/5/50
f 45/16/52 43/30/44 16/2/33
f 39/1/1 38/2/2 11/15/53
f 53/19/16 38/2/2 26/18/15
f 5/11/49 57/34/54 21/33/40
f 37/5/20 6/10/39 36/22/19
f 33/13/48 19/35/38 16/2/33
f 5/20/49 62/10/21 24/12/45
f 46/30/55 43/10/44 18/2/50
f 41/16/14 12/19/57 30/2/56
f 13/5/5 1/26/27 14/8/8
f 52/29/23 15/5/6 25/24/41
f 22/12/58 25/37/41 10/36/7
f 57/34/54 46/30/55 18/2/50
f 50/13/60 31/31/47 12/15/59
f 53/3/61 54/12/22 37/5/20
f 56/26/62 4/13/36 21/33/40
f 51/2/28 11/9/63 36/5/19
f 56/26/62 21/33/40 18/2/50
f 48/25/65 20/38/64 13/5/5
f 48/25/65 46/10/55 20/38/64
f 33/4/48 44/8/37 19/18/38
f 47/14/12 39/31/1 29/13/11
f 19/35/38 45/16/52 16/2/33
f 3/20/34 32/2/31 31/5/47
f 35/13/66 57/26/54 5/15/49
f 20/38/64 10/36/7 13/5/5
f 55/27/67 37/1/20 62/2/21
f 57/26/54 35/13/66 22/1/58
f 11/9/63 51/2/28 28/1/32
f 24/12/45 54/3/22 7/11/17
f 47/14/12 40/4/24 8/20/3
f 35/25/66 5/10/49 24/2/45
f 27/8/68 40/23/24 49/24/25
f 9/20/10 14/28/8 16/5/33
f 29/13/11 39/31/1 11/15/53
f 44/10/37 58/2/30 34/5/69
f 46/30/55 57/34/54 20/5/64
f 60/12/26 47/14/12 2/11/13
f 35/25/66 24/26/45 23/1/70
f 20/38/64 57/26/54 22/1/58
f 45/16/52 19/3/38 18/5/50
f 54/12/22 53/3/61 7/11/17
f 7/19/17 42/29/71 23/5/70
f 59/27/43 27/8/68 49/24/25
f 43/10/44 46/30/55 9/20/72
f 27/8/68 59/27/43 1/15/27
f 58/2/30 6/9/39 34/5/69
f 25/37/41 22/12/58 23/5/70
f 31/31/47 30/27/56 12/15/59
f 42/29/71 25/37/41 23/5/70
f 47/14/12 60/12/26 40/23/24
f 56/12/51 19/3/38 4/11/36
f 42/29/71 26/27/15 8/15/3
f 61/19/42 32/4/31 3/20/34
f 46/10/55 48/25/65 9/20/73
f 42/27/71 52/29/23 25/24/41
f 22/39/58 35/25/66 23/1/70
f 3/15/34 33/13/48 16/2/33
f 37/1/20 55/27/67 6/15/39
f 27/8/68 1/12/27 15/5/6
f 55/9/67 62/5/21 34/1/69
f 28/13/32 50/26/29 12/15/74
f 15/5/6 52/29/23 27/8/68
f 31/31/47 50/13/60 58/1/46
f 52/29/23 42/27/71 8/15/3
f 33/4/48 3/10/34 31/31/47
f 12/19/57 41/16/14 28/5/75
f 43/30/44 45/16/52 18/5/50
f 6/9/39 58/2/30 51/1/28
f 31/5/47 2/26/13 30/1/56
f 52/8/23 40/23/24 27/8/68
f 29/13/11 11/12/76 28/5/75
f 59/29/43 49/8/25 32/5/31
f 41/16/14 29/13/11 28/5/75
f 61/8/42 3/9/34 17/1/35
f 42/29/71 7/19/17 26/2/15
f 47/14/12 8/10/3 39/31/1
f 2/15/13 41/16/14 30/2/56
f 53/3/61 37/5/20 38/1/18
f 10/36/7 20/38/64 22/1/58
f 4/20/36 44/10/37 34/5/69
f 6/11/39 55/9/67 34/1/69
f 38/2/2 8/3/3 26/18/15
f 23/1/70 24/26/45 7/15/17
f 21/33/40 57/34/54 18/2/50
f 38/1/77 36/22/77 11/15/77
f 62/5/21 4/26/36 34/1/69
f 44/8/37 33/4/48 58/1/46
f 61/19/42 59/29/43 32/5/31
f 2/26/13 31/5/47 32/2/31

